<svg width="25" height="24" viewBox="0 0 25 24" fill="none" xmlns="http://www.w3.org/2000/svg">
<path d="M12.9632 14.975C12.8299 14.975 12.7005 14.95 12.5752 14.9C12.4499 14.85 12.3459 14.7834 12.2632 14.7L7.66318 10.1C7.47985 9.91672 7.38818 9.68338 7.38818 9.40005C7.38818 9.11671 7.47985 8.88338 7.66318 8.70005C7.84652 8.51672 8.07985 8.42505 8.36318 8.42505C8.64652 8.42505 8.87985 8.51672 9.06318 8.70005L12.9632 12.6L16.8632 8.70005C17.0465 8.51672 17.2799 8.42505 17.5632 8.42505C17.8465 8.42505 18.0798 8.51672 18.2632 8.70005C18.4465 8.88338 18.5382 9.11671 18.5382 9.40005C18.5382 9.68338 18.4465 9.91672 18.2632 10.1L13.6632 14.7C13.5632 14.8 13.4549 14.871 13.3382 14.913C13.2215 14.955 13.0965 14.9757 12.9632 14.975Z" fill="white"/>
</svg>
