<svg width="33" height="32" viewBox="0 0 33 32" fill="none" xmlns="http://www.w3.org/2000/svg">
<g clip-path="url(#clip0_932_2836)">
<path d="M12.5833 4C12.937 4 13.2761 3.85952 13.5261 3.60948C13.7762 3.35943 13.9167 3.02029 13.9167 2.66667V1.33333C13.9167 0.979711 13.7762 0.640573 13.5261 0.390524C13.2761 0.140476 12.937 0 12.5833 0C12.2297 0 11.8906 0.140476 11.6405 0.390524C11.3905 0.640573 11.25 0.979711 11.25 1.33333V2.66667C11.25 3.02029 11.3905 3.35943 11.6405 3.60948C11.8906 3.85952 12.2297 4 12.5833 4Z" fill="#595959"/>
<path d="M4.6633 6.10665C4.91312 6.35499 5.25106 6.49438 5.6033 6.49438C5.95555 6.49438 6.29349 6.35499 6.5433 6.10665C6.79164 5.85684 6.93103 5.5189 6.93103 5.16665C6.93103 4.81441 6.79164 4.47647 6.5433 4.22665L5.5833 3.27999C5.45935 3.15502 5.31188 3.05582 5.14941 2.98813C4.98693 2.92044 4.81265 2.88559 4.63664 2.88559C4.46062 2.88559 4.28635 2.92044 4.12387 2.98813C3.96139 3.05582 3.81392 3.15502 3.68997 3.27999C3.44164 3.5298 3.30225 3.86774 3.30225 4.21999C3.30225 4.57223 3.44164 4.91017 3.68997 5.15999L4.6633 6.10665Z" fill="#595959"/>
<path d="M4.25 12.3333C4.25 11.9797 4.10952 11.6406 3.85948 11.3905C3.60943 11.1405 3.27029 11 2.91667 11H1.58333C1.22971 11 0.890573 11.1405 0.640524 11.3905C0.390476 11.6406 0.25 11.9797 0.25 12.3333C0.25 12.687 0.390476 13.0261 0.640524 13.2761C0.890573 13.5262 1.22971 13.6667 1.58333 13.6667H2.91667C3.27029 13.6667 3.60943 13.5262 3.85948 13.2761C4.10952 13.0261 4.25 12.687 4.25 12.3333Z" fill="#595959"/>
<path d="M20.25 6.28001C20.4264 6.27928 20.6009 6.24354 20.7634 6.17488C20.9259 6.10622 21.0732 6.00599 21.1967 5.88001L22.13 4.94668C22.255 4.82273 22.3542 4.67526 22.4219 4.51278C22.4896 4.3503 22.5244 4.17602 22.5244 4.00001C22.5244 3.82399 22.4896 3.64972 22.4219 3.48724C22.3542 3.32476 22.255 3.17729 22.13 3.05334C21.8802 2.80501 21.5423 2.66562 21.19 2.66562C20.8378 2.66562 20.4998 2.80501 20.25 3.05334L19.25 4.00001C19.0582 4.18962 18.9285 4.43293 18.8778 4.69782C18.8272 4.9627 18.8581 5.23672 18.9664 5.48369C19.0747 5.73067 19.2554 5.93899 19.4846 6.08115C19.7137 6.22332 19.9806 6.29266 20.25 6.28001Z" fill="#595959"/>
<path d="M29.7033 20.0933C29.6661 20.0624 29.6361 20.0236 29.6154 19.9799C29.5947 19.9361 29.5837 19.8884 29.5833 19.84C29.536 17.6339 28.7085 15.5158 27.2478 13.8618C25.7871 12.2079 23.7876 11.1249 21.6042 10.8053C19.4209 10.4856 17.1948 10.9499 15.3213 12.1156C13.4477 13.2814 12.0478 15.0733 11.37 17.1733C11.3525 17.2379 11.3144 17.2951 11.2614 17.336C11.2085 17.3769 11.1436 17.3994 11.0766 17.4C9.25836 17.6258 7.59048 18.5241 6.40134 19.9181C5.2122 21.312 4.58796 23.1006 4.65151 24.9318C4.71506 26.7629 5.46179 28.5039 6.7447 29.8121C8.02761 31.1203 9.75375 31.9008 11.5833 32H25.5833C26.9693 31.9997 28.3208 31.5674 29.4497 30.7633C30.5785 29.9591 31.4287 28.8232 31.882 27.5133C32.3352 26.2035 32.3689 24.785 31.9784 23.4552C31.588 22.1253 30.7927 20.9502 29.7033 20.0933ZM29.5833 25.3333C29.5833 26.3942 29.1619 27.4116 28.4117 28.1618C27.6616 28.9119 26.6442 29.3333 25.5833 29.3333H11.5833C10.3456 29.3333 9.15865 28.8417 8.28348 27.9665C7.40831 27.0913 6.91664 25.9043 6.91664 24.6667C6.91664 23.429 7.40831 22.242 8.28348 21.3668C9.15865 20.4917 10.3456 20 11.5833 20H12.25C12.5919 20.0425 12.9369 19.951 13.2128 19.7447C13.4887 19.5384 13.674 19.2333 13.73 18.8933C14.0635 17.3011 14.9676 15.8858 16.2721 14.9139C17.5767 13.942 19.1915 13.4807 20.8126 13.6167C22.4336 13.7528 23.949 14.4768 25.0733 15.6525C26.1976 16.8283 26.8532 18.3745 26.9166 20C26.9166 20.2 26.9166 20.3867 26.9166 20.5733C26.8823 20.8367 26.9275 21.1043 27.0462 21.3419C27.165 21.5794 27.352 21.7761 27.5833 21.9067C28.1859 22.2545 28.6874 22.7536 29.0381 23.3545C29.3889 23.9555 29.5768 24.6375 29.5833 25.3333Z" fill="#595959"/>
<path d="M8.24998 16C8.29692 15.9852 8.3396 15.9592 8.37441 15.9244C8.40922 15.8896 8.43514 15.8469 8.44998 15.8C8.47215 15.7591 8.48376 15.7132 8.48376 15.6667C8.48376 15.6201 8.47215 15.5743 8.44998 15.5333C7.98254 14.7184 7.73867 13.7945 7.74302 12.855C7.74738 11.9155 7.99981 10.9939 8.47478 10.1833C8.94975 9.37278 9.6304 8.70207 10.4479 8.23907C11.2653 7.77606 12.1906 7.53721 13.13 7.54666C14.4896 7.54777 15.7953 8.07866 16.77 9.02666C16.811 9.0678 16.8625 9.09697 16.9189 9.11107C16.9753 9.12516 17.0344 9.12364 17.09 9.10666C17.831 8.90353 18.5902 8.77402 19.3566 8.72C19.4171 8.71528 19.4751 8.69416 19.5244 8.65892C19.5738 8.62368 19.6126 8.57564 19.6366 8.51999C19.6688 8.47035 19.6859 8.41247 19.6859 8.35333C19.6859 8.29419 19.6688 8.23631 19.6366 8.18666C18.6489 6.80574 17.2474 5.77488 15.6349 5.24323C14.0225 4.71159 12.2827 4.70673 10.6673 5.22936C9.05193 5.75198 7.6447 6.77499 6.64923 8.15038C5.65376 9.52576 5.12168 11.1822 5.12998 12.88C5.13067 14.2099 5.47025 15.5177 6.11664 16.68C6.16044 16.7569 6.232 16.8141 6.31665 16.84C6.35848 16.8592 6.40396 16.8691 6.44998 16.8691C6.496 16.8691 6.54148 16.8592 6.58331 16.84C7.1098 16.5057 7.66807 16.2243 8.24998 16Z" fill="#595959"/>
</g>
<defs>
<clipPath id="clip0_932_2836">
<rect width="32" height="32" fill="white" transform="translate(0.25)"/>
</clipPath>
</defs>
</svg>
