<svg width="24" height="21" viewBox="0 0 24 21" fill="none" xmlns="http://www.w3.org/2000/svg">
<path d="M19.8005 4.28647C18.9125 5.18824 18.6846 6.4853 19.1045 7.59706L15.6009 11.2041V8.64706C15.6009 7.96765 15.061 7.41177 14.401 7.41177H13.1652C13.2012 7.20177 13.2012 7.00412 13.2012 6.79412C13.2012 3.03883 10.2495 2.98784e-06 6.60188 2.98784e-06C5.24265 -0.00130938 3.91622 0.429738 2.80404 1.23418C1.69186 2.03862 0.848242 3.17717 0.38859 4.49408C-0.071062 5.81099 -0.124299 7.24195 0.236161 8.5912C0.596621 9.94044 1.35317 11.1421 2.40233 12.0318V19.7647C2.40233 20.4441 2.94227 21 3.6022 21H14.401C15.061 21 15.6009 20.4441 15.6009 19.7647V14.6876L20.7963 9.33883C21.8762 9.77118 23.1361 9.54883 24 8.64706L19.8005 4.28647ZM2.46232 7.41177C2.43832 7.20177 2.40233 7.00412 2.40233 6.79412C2.40233 4.41 4.28613 2.47059 6.60188 2.47059C8.91763 2.47059 10.8014 4.41 10.8014 6.79412C10.8014 7.00412 10.7654 7.20177 10.7414 7.41177M13.2012 18.5294H4.80207V9.88236H13.2012V18.5294Z" fill="#151515"/>
</svg>
