<svg width="33" height="32" viewBox="0 0 33 32" fill="none" xmlns="http://www.w3.org/2000/svg">
<path d="M28.75 28L22.9594 22.2093M22.9594 22.2093C23.9499 21.2188 24.7356 20.0429 25.2717 18.7487C25.8077 17.4546 26.0836 16.0675 26.0836 14.6667C26.0836 13.2659 25.8077 11.8788 25.2717 10.5846C24.7356 9.29043 23.9499 8.11452 22.9594 7.124C21.9688 6.13348 20.7929 5.34776 19.4988 4.8117C18.2046 4.27563 16.8175 3.99973 15.4167 3.99973C14.0159 3.99973 12.6288 4.27563 11.3346 4.8117C10.0405 5.34776 8.86455 6.13348 7.87403 7.124C5.87359 9.12444 4.74976 11.8376 4.74976 14.6667C4.74976 17.4957 5.87359 20.2089 7.87403 22.2093C9.87447 24.2098 12.5876 25.3336 15.4167 25.3336C18.2457 25.3336 20.9589 24.2098 22.9594 22.2093Z" stroke="#6A994E" stroke-width="3" stroke-linecap="round" stroke-linejoin="round"/>
</svg>
