<svg width="16" height="16" viewBox="0 0 16 16" fill="none" xmlns="http://www.w3.org/2000/svg">
<path d="M8.7 15.3C8.88333 15.1167 8.97933 14.8834 8.988 14.6C8.99666 14.3167 8.909 14.0834 8.725 13.9L3.825 9.00005H15C15.2833 9.00005 15.521 8.90405 15.713 8.71205C15.905 8.52005 16.0007 8.28272 16 8.00005C16 7.71672 15.904 7.47905 15.712 7.28705C15.52 7.09505 15.2827 6.99938 15 7.00005H3.825L8.725 2.10005C8.90833 1.91672 8.996 1.68338 8.988 1.40005C8.98 1.11672 8.884 0.883382 8.7 0.700048C8.51666 0.516715 8.28333 0.425049 8 0.425049C7.71666 0.425049 7.48333 0.516715 7.3 0.700048L0.699997 7.30005C0.599997 7.38338 0.528996 7.48772 0.486996 7.61305C0.444996 7.73838 0.424329 7.86738 0.424995 8.00005C0.424995 8.13338 0.445662 8.25838 0.486996 8.37505C0.528329 8.49172 0.59933 8.60005 0.699997 8.70005L7.3 15.3C7.48333 15.4834 7.71666 15.575 8 15.575C8.28333 15.575 8.51666 15.4834 8.7 15.3Z" fill="#A7C957"/>
</svg>
